<svg width="24" height="24" viewBox="0 0 24 24" fill="none" xmlns="http://www.w3.org/2000/svg">
  <path d="M22.2819 9.8211a5.9847 5.9847 0 0 0-.5157-4.9108 6.0462 6.0462 0 0 0-6.5098-2.9A6.0651 6.0651 0 0 0 4.9807 4.1818a5.9847 5.9847 0 0 0-3.9977 2.9 6.0462 6.0462 0 0 0 .7427 7.0966 5.98 5.98 0 0 0 .511 4.9107 6.051 6.051 0 0 0 6.5146 2.9001A5.9847 5.9847 0 0 0 13.2599 24a6.0557 6.0557 0 0 0 5.7718-4.2058 5.9894 5.9894 0 0 0 3.9977-2.9001 6.0557 6.0557 0 0 0-.7475-7.0729zm-9.022 12.6081a4.4755 4.4755 0 0 1-2.8764-1.0408l.1419-.0804 4.7783-2.7582a.7948.7948 0 0 0 .3927-.6813v-6.7369l2.02 1.1686a.071.071 0 0 1 .038.0522v5.5846a4.504 4.504 0 0 1-4.4945 4.4928zm-9.6607-4.1254a4.4708 4.4708 0 0 1-.5346-3.0137l.142.0852 4.783 2.7582a.7712.7712 0 0 0 .7806 0l5.8428-3.3685v2.3324a.0804.0804 0 0 1-.0332.0615L9.74 19.9502a4.4992 4.4992 0 0 1-6.1408-1.6464zM2.3408 7.8906a4.485 4.485 0 0 1 2.3655-1.9728V11.6a.7664.7664 0 0 0 .3879.6765l5.8144 3.3543-2.0201 1.1685a.0757.0757 0 0 1-.071 0l-4.8303-2.7865A4.504 4.504 0 0 1 2.3387 7.8906zm13.5188-.934l-5.8428 3.3685V7.9928a.071.071 0 0 1 .0332-.0615L14.874 5.1824a4.504 4.504 0 0 1 6.1408 1.6464 4.485 4.485 0 0 1 .5346 3.0137l-.142-.0852-4.783-2.7582a.7712.7712 0 0 0-.7663 0zm3.4993 9.1164V10.4a.7664.7664 0 0 0-.3879-.6765l-5.8144-3.3543 2.0201-1.1685a.0757.0757 0 0 1 .071 0l4.8303 2.7865a4.504 4.504 0 0 1 2.064 6.0567 4.485 4.485 0 0 1-2.3655 1.9728zm-1.8967-11.4455a4.4755 4.4755 0 0 1 2.8764 1.0408l-.1419.0804-4.7783 2.7582a.7948.7948 0 0 0-.3927.6813v6.7369l-2.02-1.1686a.071.071 0 0 1-.038-.0522V9.1298a4.504 4.504 0 0 1 4.4945-4.4928zm-2.8273 4.8702l-1.6259-.9388L12 8.5748l1.6259.9388v1.8776L12 12.33l-1.6259-.9388V9.5019z" fill="currentColor"/>
</svg>
